<?xml version="1.0" encoding="UTF-8" standalone="no"?>
<!-- Created with Inkscape (http://www.inkscape.org/) -->

<svg
   xmlns:dc="http://purl.org/dc/elements/1.1/"
   xmlns:cc="http://creativecommons.org/ns#"
   xmlns:rdf="http://www.w3.org/1999/02/22-rdf-syntax-ns#"
   xmlns:svg="http://www.w3.org/2000/svg"
   xmlns="http://www.w3.org/2000/svg"
   xmlns:sodipodi="http://sodipodi.sourceforge.net/DTD/sodipodi-0.dtd"
   xmlns:inkscape="http://www.inkscape.org/namespaces/inkscape"
   width="297mm"
   height="210mm"
   viewBox="0 0 297 210"
   version="1.1"
   id="svg8"
   inkscape:version="0.92.0 r15299"
   sodipodi:docname="FORMAS.svg">
  <defs
     id="defs2">
    <clipPath
       clipPathUnits="userSpaceOnUse"
       id="clipPath4541">
      <rect
         style="opacity:0.53800001;fill:#f2f2f2;fill-opacity:1;stroke:#000000;stroke-width:1.03634953;stroke-linecap:butt;stroke-linejoin:miter;stroke-miterlimit:4;stroke-dasharray:none;stroke-dashoffset:0;stroke-opacity:1;paint-order:stroke markers fill"
         id="rect4543"
         width="176.3889"
         height="113.56684"
         x="19.782438"
         y="80.573326" />
    </clipPath>
  </defs>
  <sodipodi:namedview
     id="base"
     pagecolor="#ffffff"
     bordercolor="#666666"
     borderopacity="1.0"
     inkscape:pageopacity="0.0"
     inkscape:pageshadow="2"
     inkscape:zoom="0.35355339"
     inkscape:cx="661.12203"
     inkscape:cy="1055.5015"
     inkscape:document-units="mm"
     inkscape:current-layer="layer1"
     showgrid="false"
     showguides="true"
     inkscape:guide-bbox="true"
     inkscape:window-width="1920"
     inkscape:window-height="1017"
     inkscape:window-x="-8"
     inkscape:window-y="-8"
     inkscape:window-maximized="1">
    <sodipodi:guide
       position="0,187.32499"
       orientation="1,0"
       id="guide4890"
       inkscape:locked="false"
       inkscape:label=""
       inkscape:color="rgb(0,0,255)" />
  </sodipodi:namedview>
  <metadata
     id="metadata5">
    <rdf:RDF>
      <cc:Work
         rdf:about="">
        <dc:format>image/svg+xml</dc:format>
        <dc:type
           rdf:resource="http://purl.org/dc/dcmitype/StillImage" />
        <dc:title></dc:title>
      </cc:Work>
    </rdf:RDF>
  </metadata>
  <g
     inkscape:label="Layer 1"
     inkscape:groupmode="layer"
     id="layer1"
     transform="translate(0,-87)">
    <g
       id="g4744"
       transform="translate(-166.73515,-128.27954)">
      <path
         inkscape:connector-curvature="0"
         id="rect4496-3"
         d="m -456.48184,-83.11152 v 31.882405 c 0,3.30823 3.01506,5.9715 6.76013,5.9715 h 239.79938 c 3.74506,0 6.76013,-2.66327 6.76013,-5.9715 V -83.11152 Z"
         style="opacity:1;fill:#2c84cc;fill-opacity:1;stroke:none;stroke-width:2.89339352;stroke-linecap:butt;stroke-linejoin:miter;stroke-miterlimit:4;stroke-dasharray:none;stroke-dashoffset:0;stroke-opacity:1;paint-order:stroke markers fill" />
      <path
         inkscape:connector-curvature="0"
         id="rect4496-8"
         d="m -449.72169,-280.9427 c -3.74508,0 -6.76015,2.66325 -6.76015,5.97148 v 45.10833 h 253.31964 v -45.10833 c 0,-3.30823 -3.01507,-5.97148 -6.76013,-5.97148 z"
         style="opacity:1;fill:#3e3e3e;fill-opacity:1;stroke:none;stroke-width:2.89278674;stroke-linecap:butt;stroke-linejoin:miter;stroke-miterlimit:4;stroke-dasharray:none;stroke-dashoffset:0;stroke-opacity:1;paint-order:stroke markers fill" />
      <path
         id="rect4626"
         d="m -456.48184,-229.8629 h 253.31965 v 146.751374 h -253.31965 z"
         style="opacity:1;fill:#ffffff;fill-opacity:1;stroke:none;stroke-width:2.88798547;stroke-linecap:butt;stroke-linejoin:miter;stroke-miterlimit:4;stroke-dasharray:none;stroke-dashoffset:0;stroke-opacity:1;paint-order:stroke markers fill"
         inkscape:connector-curvature="0" />
      <path
         inkscape:connector-curvature="0"
         id="rect4496-33"
         d="m -253.05405,-83.11152 v 37.853905 h 43.15415 c 3.73263,0 6.7377,-2.66327 6.7377,-5.9715 V -83.11152 Z"
         style="opacity:1;fill:#22669d;fill-opacity:1;stroke:none;stroke-width:2.88859129;stroke-linecap:butt;stroke-linejoin:miter;stroke-miterlimit:4;stroke-dasharray:none;stroke-dashoffset:0;stroke-opacity:1;paint-order:stroke markers fill" />
    </g>
    <g
       id="g4733"
       transform="matrix(1.2406017,0,0,1.2406017,116.49481,118.56749)">
      <path
         id="rect4656-3"
         d="m -608.38456,-625.69836 h 278.6086 c 1.11308,0 2.00918,0.78177 2.00918,1.75286 v 129.1468 c 0,0.97108 -0.8961,1.75286 -2.00918,1.75286 h -278.6086 c -1.11308,0 -2.00918,-0.78178 -2.00918,-1.75286 v -129.1468 c 0,-0.97109 0.8961,-1.75286 2.00918,-1.75286 z"
         style="opacity:0.43299997;fill:#ffffff;fill-opacity:1;stroke:#000000;stroke-width:0.5;stroke-linecap:butt;stroke-linejoin:miter;stroke-miterlimit:4;stroke-dasharray:none;stroke-dashoffset:0;stroke-opacity:1;paint-order:stroke markers fill"
         inkscape:connector-curvature="0" />
      <path
         inkscape:connector-curvature="0"
         id="rect4656"
         d="m -608.38457,-625.6981 c -1.11308,0 -2.00918,0.78179 -2.00918,1.75286 v 21.09743 h 282.6272 v -21.09743 c 0,-0.97107 -0.89609,-1.75286 -2.00919,-1.75286 z"
         style="opacity:1;fill:#333333;fill-opacity:1;stroke:none;stroke-width:1.59324992;stroke-linecap:butt;stroke-linejoin:miter;stroke-miterlimit:4;stroke-dasharray:none;stroke-dashoffset:0;stroke-opacity:1;paint-order:stroke markers fill" />
      <path
         inkscape:connector-curvature="0"
         id="rect4656-4"
         d="m -350.68403,-625.69809 v 22.85028 h 22.91748 v -21.09743 c 0,-0.97107 -0.8961,-1.75285 -2.0092,-1.75285 z"
         style="opacity:1;fill:#22669d;fill-opacity:1;stroke:none;stroke-width:1.59324992;stroke-linecap:butt;stroke-linejoin:miter;stroke-miterlimit:4;stroke-dasharray:none;stroke-dashoffset:0;stroke-opacity:1;paint-order:stroke markers fill" />
    </g>
    <g
       id="g4758"
       transform="translate(-166.37866,-782.455)">
      <path
         inkscape:connector-curvature="0"
         id="rect4748"
         d="m 15.39944,195.37479 h 260.02014 c 0.831,0 1.49999,0.67003 1.49999,1.50232 v 16.63258 c 0,0.83229 -0.66899,1.50232 -1.49999,1.50232 H 15.39944 c -0.830997,0 -1.499995,-0.67003 -1.499995,-1.50232 v -16.63258 c 0,-0.83229 0.668998,-1.50232 1.499995,-1.50232 z"
         style="opacity:1;fill:#fdebe9;fill-opacity:1;stroke:#ff0000;stroke-width:1.00077367;stroke-linecap:butt;stroke-linejoin:miter;stroke-miterlimit:4;stroke-dasharray:none;stroke-dashoffset:0;stroke-opacity:1;paint-order:stroke markers fill" />
      <path
         inkscape:connector-curvature="0"
         id="rect4750"
         d="M 13.37684,194.87429 H 52.21101 V 215.5125 H 13.37684 Z"
         style="opacity:1;fill:#ff0000;fill-opacity:1;stroke:none;stroke-width:1.03825712;stroke-linecap:butt;stroke-linejoin:miter;stroke-miterlimit:4;stroke-dasharray:none;stroke-dashoffset:0;stroke-opacity:1;paint-order:stroke markers fill" />
    </g>
    <g
       id="g4785"
       transform="translate(181.69057,-623.17583)">
      <path
         inkscape:connector-curvature="0"
         id="rect4748-1"
         d="m -332.66979,69.69389 h 260.02014 c 0.831,0 1.49999,0.67003 1.49999,1.50232 v 16.63258 c 0,0.83229 -0.66899,1.50232 -1.49999,1.50232 h -260.02014 c -0.831,0 -1.49999,-0.67003 -1.49999,-1.50232 V 71.19621 c 0,-0.83229 0.66899,-1.50232 1.49999,-1.50232 z"
         style="opacity:1;fill:#fdf5eb;fill-opacity:1;stroke:#ff8500;stroke-width:1.00100005;stroke-linecap:butt;stroke-linejoin:miter;stroke-miterlimit:4;stroke-dasharray:none;stroke-dashoffset:0;stroke-opacity:1;paint-order:stroke markers fill" />
      <path
         inkscape:connector-curvature="0"
         id="rect4750-8"
         d="m -334.69239,69.19339 h 38.83417 V 89.8316 h -38.83417 z"
         style="opacity:1;fill:#ff8500;fill-opacity:1;stroke:none;stroke-width:1.03825712;stroke-linecap:butt;stroke-linejoin:miter;stroke-miterlimit:4;stroke-dasharray:none;stroke-dashoffset:0;stroke-opacity:1;paint-order:stroke markers fill" />
    </g>
    <g
       id="g4812"
       transform="translate(191.74474,-613.65083)">
      <path
         inkscape:connector-curvature="0"
         id="rect4748-1-8"
         d="m -342.72396,100.91543 h 260.020143 c 0.831,0 1.49999,0.67003 1.49999,1.50232 v 16.63258 c 0,0.83229 -0.66899,1.50232 -1.49999,1.50232 H -342.72396 c -0.831,0 -1.49999,-0.67003 -1.49999,-1.50232 v -16.63258 c 0,-0.83229 0.66899,-1.50232 1.49999,-1.50232 z"
         style="opacity:1;fill:#fffff5;fill-opacity:1;stroke:#ffff00;stroke-width:1.00100005;stroke-linecap:butt;stroke-linejoin:miter;stroke-miterlimit:4;stroke-dasharray:none;stroke-dashoffset:0;stroke-opacity:1;paint-order:stroke markers fill" />
      <path
         inkscape:connector-curvature="0"
         id="rect4750-8-8"
         d="m -344.74656,100.41493 h 38.83417 v 20.63821 h -38.83417 z"
         style="opacity:1;fill:#ffff00;fill-opacity:1;stroke:none;stroke-width:1.03825712;stroke-linecap:butt;stroke-linejoin:miter;stroke-miterlimit:4;stroke-dasharray:none;stroke-dashoffset:0;stroke-opacity:1;paint-order:stroke markers fill" />
    </g>
    <g
       id="g4839"
       transform="translate(196.5073,-613.65083)">
      <path
         inkscape:connector-curvature="0"
         id="rect4748-1-8-8"
         d="m -347.48652,142.18972 h 260.020147 c 0.831,0 1.49999,0.67003 1.49999,1.50232 v 16.63258 c 0,0.83229 -0.66899,1.50232 -1.49999,1.50232 H -347.48652 c -0.831,0 -1.49999,-0.67003 -1.49999,-1.50232 v -16.63258 c 0,-0.83229 0.66899,-1.50232 1.49999,-1.50232 z"
         style="opacity:1;fill:#f4f8f5;fill-opacity:1;stroke:#3f8954;stroke-width:1.00100005;stroke-linecap:butt;stroke-linejoin:miter;stroke-miterlimit:4;stroke-dasharray:none;stroke-dashoffset:0;stroke-opacity:1;paint-order:stroke markers fill" />
      <path
         inkscape:connector-curvature="0"
         id="rect4750-8-8-8"
         d="m -349.50912,141.68922 h 38.83417 v 20.63821 h -38.83417 z"
         style="opacity:1;fill:#3f8954;fill-opacity:1;stroke:none;stroke-width:1.03825712;stroke-linecap:butt;stroke-linejoin:miter;stroke-miterlimit:4;stroke-dasharray:none;stroke-dashoffset:0;stroke-opacity:1;paint-order:stroke markers fill" />
    </g>
    <g
       id="g4877"
       transform="translate(197.56563,-613.65083)">
      <path
         inkscape:connector-curvature="0"
         id="rect4748-1-8-8-4"
         d="m -348.54485,185.31681 h 260.020146 c 0.831,0 1.49999,0.67003 1.49999,1.50232 v 16.63258 c 0,0.83229 -0.66899,1.50232 -1.49999,1.50232 H -348.54485 c -0.831,0 -1.49999,-0.67003 -1.49999,-1.50232 v -16.63258 c 0,-0.83229 0.66899,-1.50232 1.49999,-1.50232 z"
         style="opacity:1;fill:#f0f5ff;fill-opacity:1;stroke:#4471c4;stroke-width:1.00100005;stroke-linecap:butt;stroke-linejoin:miter;stroke-miterlimit:4;stroke-dasharray:none;stroke-dashoffset:0;stroke-opacity:1;paint-order:stroke markers fill" />
      <path
         inkscape:connector-curvature="0"
         id="rect4750-8-8-8-4"
         d="m -350.56745,184.81631 h 38.83417 v 20.63821 h -38.83417 z"
         style="opacity:1;fill:#4471c4;fill-opacity:1;stroke:none;stroke-width:1.03825712;stroke-linecap:butt;stroke-linejoin:miter;stroke-miterlimit:4;stroke-dasharray:none;stroke-dashoffset:0;stroke-opacity:1;paint-order:stroke markers fill" />
    </g>
    <rect
       style="opacity:1;fill:#3e3e3e;fill-opacity:1;stroke:#000000;stroke-width:4;stroke-linecap:butt;stroke-linejoin:miter;stroke-miterlimit:4;stroke-dasharray:none;stroke-dashoffset:0;stroke-opacity:0.43137255;paint-order:stroke markers fill"
       id="rect4952"
       width="289.388"
       height="75.633057"
       x="-371.09052"
       y="-175.4481"
       rx="7"
       ry="7" />
    <path
       style="opacity:1;fill:#fe2533;fill-opacity:1;stroke:none;stroke-width:1.87933195;stroke-linecap:butt;stroke-linejoin:miter;stroke-miterlimit:4;stroke-dasharray:none;stroke-dashoffset:0;stroke-opacity:1;paint-order:stroke markers fill"
       d="m -364.08959,-175.44811 h 0.22043 7 v 75.63306 l -7,-1e-5 h -0.22043 c -3.878,0 -7,-3.122 -7,-7 v -61.63305 c 0,-3.878 3.122,-7 7,-7 z"
       id="rect4949"
       inkscape:connector-curvature="0"
       sodipodi:nodetypes="sccccssss" />
  </g>
</svg>
