<?xml version="1.0"?>
<svg xmlns:rdf="http://www.w3.org/1999/02/22-rdf-syntax-ns#" xmlns="http://www.w3.org/2000/svg" xmlns:cc="http://web.resource.org/cc/" xmlns:xlink="http://www.w3.org/1999/xlink" xmlns:dc="http://purl.org/dc/elements/1.1/" xmlns:svg="http://www.w3.org/2000/svg" id="svg559" height="297mm" width="210mm">
  <path id="path573" stroke="#000" stroke-width="1pt" fill="none" d="m76.898 227.7l22.097-11.49 15.905-19.45 12.38-17.67-0.88-6.19 7.95-7.07 2.65-6.19 0.89-10.61 13.25-12.37-0.88-14.14 17.68-19.45 18.56-6.186 0.88-7.071 8.84-10.607h7.96l10.6-9.722h6.19l1.77 3.535 18.56 4.42h33.59l5.3 1.767 11.49-0.883 4.42 12.374 5.3 4.419 7.08-0.884 2.65-3.535 1.76 7.071 6.19 4.422h4.42l4.42-7.074 4.42-7.071 30.05-1.767 2.65-3.536 0.89 1.768h19.44l3.54-6.187 8.84 0.883 8.84-1.767 6.18 6.187 3.54 4.419-1.77 12.375 7.07 7.07 2.65 6.19-4.42 9.72 4.42 25.63 7.08 11.49 7.07 7.96 10.6-1.77 5.31-0.88h3.53l3.54 8.84-6.19 2.65-7.07 23.86v26.52l6.19 7.95 6.18 1.77v9.72l3.54 4.42 0.88 6.19 6.19 5.3 33.59-2.65 6.18-7.95 0.89-6.19 20.33 1.77 15.91-7.96 18.56-2.65 7.07 9.72 22.1 1.77-6.19 5.31-16.79 4.41-8.84 4.42-7.07 7.08v12.37l-4.42 3.54-9.73 7.07-10.6 5.3-10.61 3.54-4.42 5.3v4.42h-30.93l-15.03 5.3-10.61 1.77-5.3 5.3-31.82 18.56-3.54 7.96-12.37 6.19-5.3 4.42-13.26-0.89-5.3 7.07-10.61 8.84h-4.42l-10.61 7.96-1.76 3.53h-7.08l-6.18-3.53 3.53-11.49-6.18-6.19-7.08-3.54-34.47 3.54 3.54-15.03-0.89-8.84-10.6-17.67-2.65-16.8-7.07-11.49-3.54-17.68-8.84-12.37-10.61-15.91-23.86 0.88-8.84-0.88-15.03-0.88-6.18 5.3-4.42-7.96-15.91-2.65-17.68-10.6-15.03 0.88-15.91-5.3-16.79-3.54-5.3 5.3h-15.913l-7.071-2.65-1.768 1.77-11.49-2.65z"/>
  <metadata>
    <rdf:RDF>
      <cc:Work>
        <dc:format>image/svg+xml</dc:format>
        <dc:type rdf:resource="http://purl.org/dc/dcmitype/StillImage"/>
        <cc:license rdf:resource="http://creativecommons.org/licenses/publicdomain/"/>
        <dc:publisher>
          <cc:Agent rdf:about="http://openclipart.org/">
            <dc:title>Openclipart</dc:title>
          </cc:Agent>
        </dc:publisher>
        <dc:title>S&#xE3;o Paulo map</dc:title>
        <dc:date>2006-10-15T10:04:16</dc:date>
        <dc:description>Sao Paulo is the major industrial and economic powerhouse of the Brazilian economy. The state of S&#xE3;o Paulo has an area of approximately 248,800 km&#xB2; (95,700 mi&#xB2;), and a population of about 40 million (21.5% of the population of Brazil), which makes it the most populous subnational unit in the Western Hemisphere.</dc:description>
        <dc:source>http://openclipart.org/detail/626/s&#xE3;o-paulo-map-by-nferraz</dc:source>
        <dc:creator>
          <cc:Agent>
            <dc:title>nferraz</dc:title>
          </cc:Agent>
        </dc:creator>
        <dc:subject>
          <rdf:Bag>
            <rdf:li>brasil</rdf:li>
            <rdf:li>brazil</rdf:li>
            <rdf:li>clip art</rdf:li>
            <rdf:li>clipart</rdf:li>
            <rdf:li>geography</rdf:li>
            <rdf:li>image</rdf:li>
            <rdf:li>map</rdf:li>
            <rdf:li>media</rdf:li>
            <rdf:li>public domain</rdf:li>
            <rdf:li>sao paulo</rdf:li>
            <rdf:li>svg</rdf:li>
          </rdf:Bag>
        </dc:subject>
      </cc:Work>
      <cc:License rdf:about="http://creativecommons.org/licenses/publicdomain/">
        <cc:permits rdf:resource="http://creativecommons.org/ns#Reproduction"/>
        <cc:permits rdf:resource="http://creativecommons.org/ns#Distribution"/>
        <cc:permits rdf:resource="http://creativecommons.org/ns#DerivativeWorks"/>
      </cc:License>
    </rdf:RDF>
  </metadata>
</svg>
