<svg height="512" viewBox="0 0 57 58" width="512" xmlns="http://www.w3.org/2000/svg"><g id="Page-1" fill="none" fill-rule="evenodd"><g id="011---Vaccine-Injection" fill="rgb(0,0,0)" fill-rule="nonzero"><path id="Shape" d="m45.246 24.451c-2.7188194.6311842-5.5540524-.4008077-7.231-2.632-.3878047-.5397394-.8781401-.9977936-1.443-1.348l-1.34 3.68.94.342c.4563048.1656165.7277638.6350182.6437265 1.1131192-.0840374.478101-.4992959.8267961-.9847265.8268808-.1170477.0001866-.2331936-.0204691-.343-.061l-.939-.342-1.027 2.819.94.342c.4564827.1656806.7279499.6353667.6436407 1.1136119s-.5000212.8267895-.9856407.8263881c-.1167306.0002821-.2325651-.0203784-.342-.061l-.94-.342-1.026 2.82.94.342c.4564827.1656806.7279499.6353667.6436407 1.1136119s-.5000212.8267895-.9856407.8263881c-.1167306.0002821-.2325651-.0203784-.342-.061l-.94-.342-.342.94c-.0906832.2495564-.078394.5249323.0341582.7654189.1125523.2404866.316126.4263378.5658418.5165811l.939.342 1.252.456 9.084 3.305c.2494328.0903728.5245545.077924.7648063-.0346061s.4259408-.3159177.5161937-.5653939l5.722-15.721c-.4369134-.3636699-.9373333-.6433761-1.476-.825-.9381941-.368028-1.9703279-.4224062-2.942-.155zm-6.258 12.773c-.1885424.5188612-.7618758.7867815-1.2808476.5985438-.5189718-.1882376-.7872289-.7614135-.599296-1.2804958.1879328-.5190823.760951-.7876759 1.2801436-.600048.2497158.0902433.4532895.2760945.5658418.5165811.1125522.2404866.1248414.5158625.0341582.7654189zm1.112-5.981c-.1881112.5191951-.7614606.7876308-1.2806858.5996027-.5192252-.188028-.7877528-.7613344-.5998079-1.2805897s.7612083-.7878747 1.2804937-.600013c.2494762.0902529.4528638.2759419.5653939.5161937s.1249789.5153735.0346061.7648063zm.428-4.1c-.5188612-.1885424-.7867815-.7618758-.5985438-1.2808476.1882376-.5189718.7614135-.7872289 1.2804958-.599296.5190823.1879328.7876759.760951.600048 1.2801436-.0902529.2494762-.2759419.4528638-.5161937.5653939s-.5153735.1249789-.7648063.0346061zm3.244 8.63c-.1885424.5188612-.7618758.7867815-1.2808476.5985438-.5189718-.1882376-.7872289-.7614135-.599296-1.2804958.1879328-.5190823.760951-.7876759 1.2801436-.600048.2498984.0900438.4537043.2758121.5664545.5163208.1127503.2405088.1251795.5159942.0345455.7656792zm.77-5.041c-.1885424.5188612-.7618758.7867815-1.2808476.5985438-.5189718-.1882376-.7872289-.7614135-.599296-1.2804958.1879328-.5190823.760951-.7876759 1.2801436-.600048.2498984.0900438.4537043.2758121.5664545.5163208.1127503.2405088.1251795.5159942.0345455.7656792zm2.308-3.417c-.1881112.5191951-.7614606.7876308-1.2806858.5996027-.5192252-.188028-.7877528-.7613344-.5998079-1.2805897s.7612083-.7878747 1.2804937-.600013c.2496588.0900536.4532786.2756597.5660066.5159337.1127281.2402739.1253169.515505.0349934.7650663z"/><path id="Shape" d="m38.653 14.754.939.342c.4564827.1656806.7279499.6353667.6436407 1.1136119s-.5000212.8267895-.9856407.8263881c-.116723.0001959-.2325424-.0204619-.342-.061l-.939-.342-.707 1.942c.9107644.476413 1.7000278 1.1555147 2.307 1.985 1.2118711 1.6584538 3.3057901 2.4201662 5.3 1.928 1.3283379-.3379395 2.7289879-.2533482 4.007.242.5288134.188816 1.0338729.4384932 1.505.744l2.115-5.811-13.159-4.788z"/><path id="Shape" d="m52.921 13.562-3.758-1.368-.626-.228-6.892-2.508c-.2495564-.09068316-.5249323-.078394-.7654189.03415824s-.4263378.31612599-.5165811.56584176l-.342.942 13.156 4.788.342-.939c.0906832-.2495564.078394-.5249323-.0341582-.7654189-.1125523-.2404866-.316126-.4263378-.5658418-.5165811z"/><path id="Shape" d="m32.579 40.212c-.2720363.747775-.2358499 1.572993.1005974 2.2940855.3364474.7210925.9455904 1.2789804 1.6934026 1.5509145l1.879.684c.7480167.2730171 1.5738878.2374499 2.2956627-.0988657.721775-.3363157 1.2802327-.9457852 1.5523373-1.6941343l-3.762-1.368z"/><path id="Shape" d="m56.906 4.682c-.1114271-.24050524-.3145579-.42634837-.564-.516l-11.277-4.105c-.5153851-.17637522-1.0771292.09219699-1.2634616.6040664-.1863325.5118694.0713003 1.07871395.5794616 1.2749336l3.759 1.369 3.76 1.368 3.759 1.368c.2495564.09068316.5249323.078394.7654189-.03415824s.4263378-.31612599.5165811-.56584176c.0907515-.24879331.0781475-.52355986-.035-.763z"/><path id="Rectangle-path" d="m46.651 6.751h4v2h-4z" transform="matrix(.342 -.94 .94 .342 24.727 50.817)"/><path id="Rectangle-path" d="m11 16h4v6h-4z"/><path id="Shape" d="m9 22v-6h-1c-1.1045695 0-2 .8954305-2 2v3c0 .5522847.44771525 1 1 1z"/><path id="Shape" d="m20 21v-3c0-1.1045695-.8954305-2-2-2h-1v6h2c.5522847 0 1-.4477153 1-1z"/><path id="Shape" d="m5.78 32c1.10977353.0285472 2.20257504-.2766151 3.137-.876 1.2263192-.7639909 2.6484903-1.1545407 4.093-1.124 1.4469717-.0315495 2.8717588.3593982 4.1 1.125.9288671.5976224 2.0158295.9024596 3.12.875 1.1032369.0286405 2.189488-.275942 3.117-.874.307-.17.64-.351 1.016-.519-.8736549-1.6100995-2.5601496-2.6111677-4.392-2.607-.7920133-.0031732-1.5502517-.3211899-2.1075676-.8839457-.5573159-.5627559-.8679524-1.3240475-.8634324-2.1160543 0-.5522847-.4477153-1-1-1h-6c-.55228475 0-1 .4477153-1 1 .00452005.7920068-.30611652 1.5532984-.86343243 2.1160543-.55731591.5627558-1.31555422.8807725-2.10756757.8839457-1.83185036-.0041677-3.51834511.9969005-4.392 2.607.377.167.709.348 1.016.518.93128867.5980096 2.02059134.9028192 3.127.875z"/><path id="Shape" d="m1 49h24v-10h-24zm17-2h-10c-.55228475 0-1-.4477153-1-1s.44771525-1 1-1h10c.5522847 0 1 .4477153 1 1s-.4477153 1-1 1zm-11-6h12c.5522847 0 1 .4477153 1 1s-.4477153 1-1 1h-12c-.55228475 0-1-.4477153-1-1s.44771525-1 1-1z"/><path id="Shape" d="m1 53c0 1.6568542 1.34314575 3 3 3h18c1.6568542 0 3-1.3431458 3-3v-2h-24z"/><path id="Shape" d="m24.953 32.539c-.21.1-.417.215-.635.336-1.2240968.7649582-2.6448728 1.1559496-4.088 1.125-1.4449701.0306103-2.8675724-.3603099-4.094-1.125-.9306474-.598612-2.0198221-.9034834-3.126-.875-1.1056973-.0282698-2.1943969.2762177-3.125.874-1.23008188.7657131-2.65639376 1.1569499-4.105 1.126-1.44692863.0312011-2.8716181-.3597197-4.1-1.125-.219-.122-.427-.233-.638-.337-.015.154-.047.3-.047.462v4h24.005v-4c0-.158-.032-.307-.047-.461z"/><path id="Shape" d="m35.57 46.62-3.87 10.63c-.1431502.3959474-.5189699.6598209-.94.66-.116002.0004065-.2311439-.0199127-.34-.06-.5189865-.1879533-.7875381-.7608633-.6-1.28l3.87-10.63z"/></g></g></svg>